<?xml version="1.0" standalone="no"?>
<!DOCTYPE svg PUBLIC "-//W3C//DTD SVG 20010904//EN"
 "http://www.w3.org/TR/2001/REC-SVG-20010904/DTD/svg10.dtd">
<svg version="1.0" xmlns="http://www.w3.org/2000/svg"
 width="225.000000pt" height="225.000000pt" viewBox="0 0 225.000000 225.000000"
 preserveAspectRatio="xMidYMid meet">

<g transform="translate(0.000000,225.000000) scale(0.100000,-0.100000)"
fill="#000000" stroke="none">
<path d="M556 1904 c-195 -47 -332 -180 -381 -369 -29 -112 -14 -311 30 -395
l16 -30 302 0 302 0 33 50 c32 50 62 64 79 38 4 -7 18 -40 29 -73 13 -35 24
-54 27 -45 3 8 17 114 32 235 14 121 28 228 31 238 5 17 48 24 57 10 3 -5 17
-167 33 -360 16 -194 31 -347 35 -340 3 6 14 81 24 165 11 93 23 156 31 163
28 23 49 5 74 -68 14 -39 28 -74 31 -78 4 -3 16 9 28 28 33 54 73 62 111 22
28 -30 44 -31 96 -7 32 14 78 18 249 22 l210 5 24 65 c18 50 25 92 28 180 8
180 -27 285 -132 398 -65 70 -160 124 -261 148 -89 21 -236 14 -316 -14 -67
-24 -157 -84 -212 -141 l-39 -40 -63 58 c-35 32 -91 72 -124 90 -107 57 -259
75 -384 45z m1164 -182 c22 -22 35 -27 61 -24 57 6 85 -32 79 -105 -1 -13 3
-23 9 -23 6 0 18 -15 27 -33 14 -30 14 -37 0 -71 -11 -28 -26 -42 -56 -54 -25
-11 -40 -24 -40 -35 0 -32 -28 -74 -59 -87 -36 -14 -72 -7 -110 21 -16 11 -47
23 -69 26 -80 11 -117 76 -83 145 17 35 18 43 6 72 -28 66 14 136 80 136 20 0
35 7 43 20 13 21 44 38 70 39 8 1 26 -12 42 -27z"/>
<path d="M1625 1706 c-14 -14 -25 -30 -25 -36 0 -7 -8 -9 -21 -5 -72 23 -119
-74 -63 -130 15 -15 15 -18 -7 -41 -28 -30 -31 -85 -5 -113 10 -11 38 -23 62
-27 23 -3 58 -17 75 -30 66 -49 139 -16 139 62 0 31 3 34 29 34 34 0 81 49 81
84 0 23 -28 56 -47 56 -8 0 -8 11 -2 36 8 28 7 41 -6 60 -16 25 -57 32 -84 15
-11 -7 -19 -1 -30 22 -21 43 -61 48 -96 13z m73 -8 c19 -19 14 -76 -8 -98 -26
-26 -46 -25 -65 4 -33 50 33 134 73 94z m120 -50 c19 -19 14 -44 -14 -77 -56
-67 -117 -6 -63 63 22 27 57 34 77 14z m-224 -30 c23 -66 -48 -111 -74 -48
-18 44 0 82 37 78 20 -2 30 -11 37 -30z m113 -73 c21 -15 39 -69 50 -148 9
-69 -46 -99 -102 -56 -15 12 -48 26 -73 31 -59 11 -87 37 -78 72 6 25 14 33
96 86 51 33 76 37 107 15z m151 -17 c18 -18 14 -45 -10 -68 -32 -30 -72 -23
-76 12 -6 48 55 87 86 56z"/>
<path d="M1056 1118 c-10 -84 -23 -161 -28 -171 -6 -11 -18 -17 -31 -15 -18 2
-28 21 -57 106 l-36 102 -18 -30 c-10 -17 -29 -35 -43 -41 -13 -5 -155 -9
-314 -9 l-290 0 43 -62 c129 -184 484 -493 805 -700 l42 -27 78 51 c177 115
421 316 594 488 98 97 199 220 199 241 0 5 -82 9 -185 9 -166 0 -190 -2 -225
-20 -53 -27 -92 -25 -129 5 l-30 26 -41 -56 c-54 -74 -77 -72 -105 5 l-19 55
-31 -245 c-16 -135 -34 -251 -38 -257 -10 -17 -32 -17 -45 0 -6 6 -23 166 -38
355 -16 188 -31 342 -34 342 -3 0 -14 -69 -24 -152z"/>
</g>
</svg>
