<?xml version="1.0" standalone="no"?>
<!DOCTYPE svg PUBLIC "-//W3C//DTD SVG 20010904//EN"
 "http://www.w3.org/TR/2001/REC-SVG-20010904/DTD/svg10.dtd">
<svg version="1.0" xmlns="http://www.w3.org/2000/svg"
 width="360.000000pt" height="140.000000pt" viewBox="0 0 360.000000 140.000000"
 preserveAspectRatio="xMidYMid meet">

<g transform="translate(0.000000,140.000000) scale(0.100000,-0.100000)"
fill="#000000" stroke="none">
<path d="M3153 894 c-18 -8 -33 -20 -33 -28 0 -7 -9 -25 -20 -39 -24 -30 -25
-56 -5 -83 8 -10 15 -27 15 -36 0 -9 5 -20 12 -24 8 -5 9 -2 5 9 -13 34 3 49
44 42 26 -4 39 -3 39 4 0 6 -6 11 -14 11 -18 0 -40 26 -27 34 14 9 1 46 -18
47 -13 0 -13 1 -1 6 8 3 21 12 28 21 10 14 12 14 12 1 0 -25 44 -76 60 -71 11
4 10 1 -3 -12 -9 -10 -17 -24 -17 -31 0 -8 -8 -18 -17 -24 -10 -5 -15 -13 -10
-17 4 -4 16 1 26 10 15 14 24 15 40 7 12 -7 18 -17 15 -26 -4 -8 -2 -15 4 -15
14 0 21 -80 9 -107 -5 -12 -6 -30 -2 -40 5 -10 7 -21 7 -25 -1 -5 4 -8 11 -8
14 -1 62 -67 72 -101 3 -13 3 -19 -2 -13 -13 19 -47 24 -65 10 -15 -11 -16
-17 -5 -46 9 -24 9 -34 1 -37 -6 -2 -9 -14 -7 -27 3 -15 -1 -25 -11 -29 -9 -4
-16 -2 -16 4 0 5 -11 7 -25 3 -24 -6 -25 -4 -25 34 0 43 -15 65 -23 35 -2 -10
-2 6 1 35 5 51 4 52 -21 52 -14 0 -31 -8 -36 -17 -9 -15 -10 -13 -11 13 0 23
7 36 24 48 21 13 24 22 21 58 -2 24 -9 44 -14 46 -5 2 -7 10 -4 18 3 8 -5 26
-18 40 l-23 24 -11 -34 c-14 -39 -5 -183 14 -229 7 -18 8 -35 2 -46 -6 -9 -10
-48 -10 -86 0 -64 2 -70 32 -98 l32 -30 3 24 c4 30 23 69 34 69 4 0 13 -20 19
-45 6 -25 16 -45 21 -45 5 0 8 7 6 16 -2 10 2 19 8 21 7 2 11 -4 10 -14 -1
-23 84 -38 97 -16 5 7 12 11 17 8 4 -3 11 12 16 33 7 36 7 36 13 9 6 -27 7
-27 29 -11 15 10 21 22 17 34 -3 10 -1 21 5 25 12 8 13 77 1 91 -5 5 -11 41
-14 81 -3 39 -8 77 -12 83 -3 6 -8 24 -10 40 -5 35 -28 82 -49 99 -9 8 -16 19
-16 26 0 7 -7 18 -15 25 -17 14 -20 75 -5 85 18 11 11 41 -15 65 -14 13 -25
29 -25 35 0 6 -25 19 -56 29 -54 17 -56 17 -70 -1 -13 -16 -13 -16 -8 0 7 20
9 20 -33 1z m-13 -132 c0 -7 -4 -10 -10 -7 -5 3 -10 16 -10 28 0 18 2 19 10 7
5 -8 10 -21 10 -28z"/>
<path d="M2880 795 c0 -32 5 -47 15 -52 12 -4 10 -9 -11 -19 -24 -13 -33 -12
-81 8 -29 12 -56 19 -59 15 -8 -8 35 -97 47 -97 5 0 9 6 9 13 1 6 10 -5 21
-26 15 -29 25 -38 39 -34 13 3 24 -3 35 -19 12 -18 12 -24 3 -25 -7 -1 -2 -4
12 -8 14 -4 24 -13 23 -19 -5 -20 7 -14 38 19 30 33 36 53 18 64 -6 4 -10 21
-9 39 3 56 0 74 -15 89 -8 8 -11 17 -8 21 9 9 -46 76 -63 76 -10 0 -14 -12
-14 -45z m45 -35 c7 -22 6 -23 -8 -12 -9 8 -13 21 -10 29 5 12 3 14 -7 8 -9
-6 -11 -4 -5 4 9 15 20 5 30 -29z m-132 -46 c3 -3 3 -12 0 -20 -4 -11 -9 -12
-19 -3 -8 6 -14 15 -14 20 0 10 24 12 33 3z"/>
<path d="M2614 713 c4 -31 -14 -103 -26 -103 -7 0 -24 27 -28 45 -1 6 -14 16
-29 23 -14 7 -19 10 -9 8 22 -6 29 3 17 25 -15 29 -38 23 -55 -15 -15 -29 -15
-38 -3 -65 17 -38 24 -39 37 -3 l10 27 1 -25 c1 -14 -4 -41 -10 -60 -6 -19
-14 -49 -19 -67 -7 -31 -6 -32 21 -30 17 1 30 9 33 20 2 10 14 17 29 17 22 0
25 5 32 55 4 35 10 53 17 49 6 -4 8 -1 6 7 -3 8 1 21 9 30 15 18 6 56 -21 78
-13 11 -15 9 -12 -16z m-24 -188 c0 -5 -5 -3 -10 5 -5 8 -10 20 -10 25 0 6 5
3 10 -5 5 -8 10 -19 10 -25z"/>
<path d="M2581 704 c0 -11 3 -14 6 -6 3 7 2 16 -1 19 -3 4 -6 -2 -5 -13z"/>
<path d="M3158 693 c6 -2 18 -2 25 0 6 3 1 5 -13 5 -14 0 -19 -2 -12 -5z"/>
<path d="M2204 679 c-11 -6 -31 -30 -44 -54 -23 -42 -23 -45 -6 -64 17 -19 17
-20 -8 -36 -13 -9 -28 -29 -31 -45 -3 -15 -17 -42 -31 -61 -16 -23 -24 -46
-24 -75 0 -30 -5 -46 -17 -52 -25 -15 -27 -101 -2 -157 11 -25 24 -45 30 -45
5 0 7 -11 3 -26 -6 -23 -4 -25 22 -22 21 2 29 9 30 23 2 48 5 55 18 55 8 0 21
-7 30 -15 8 -8 19 -15 25 -15 6 0 11 -4 11 -10 0 -5 9 -10 20 -10 15 0 20 7
20 25 0 22 3 25 25 19 16 -4 30 0 41 11 9 9 23 14 31 11 8 -3 23 -1 34 4 15 9
19 7 19 -6 0 -23 46 -64 72 -64 15 0 19 5 15 20 -9 33 24 44 80 26 21 -7 22
-6 11 26 -14 42 -22 51 -16 17 4 -24 3 -25 -19 -15 -30 14 -29 24 2 38 18 8
24 16 19 27 -4 9 -10 32 -14 51 -5 19 -11 44 -14 55 -3 11 -8 37 -11 58 -3 21
-10 35 -16 32 -5 -4 -9 -2 -9 2 0 5 -6 18 -14 28 -13 18 -14 17 -28 -11 -9
-16 -18 -45 -22 -65 -4 -21 -15 -48 -26 -62 -13 -16 -20 -42 -21 -75 -2 -49
-3 -51 -43 -66 -47 -18 -65 -20 -85 -7 -11 7 -10 21 9 82 12 41 28 80 34 88 6
8 11 53 12 100 2 140 2 141 24 141 24 0 25 11 6 65 -11 30 -22 42 -47 51 -41
15 -68 16 -95 3z m86 -74 c11 -13 8 -15 -13 -15 -14 0 -28 4 -31 9 -4 5 4 7
16 4 19 -4 20 -3 8 6 -8 6 -10 11 -4 11 6 0 17 -7 24 -15z m188 -342 c-5 -23
-23 -20 -26 4 -3 18 0 21 13 17 9 -4 15 -13 13 -21z m62 -23 c0 -11 -4 -20
-10 -20 -5 0 -10 9 -10 20 0 11 5 20 10 20 6 0 10 -9 10 -20z m-33 -45 c-1
-14 -6 -25 -12 -24 -5 0 -13 -8 -17 -18 -6 -12 -6 -9 -3 10 5 23 22 55 32 57
1 0 1 -11 0 -25z"/>
<path d="M1714 616 c-15 -12 -17 -17 -6 -27 6 -7 12 -19 12 -27 0 -7 7 -20 15
-28 11 -12 13 -36 8 -128 -4 -73 -2 -119 5 -132 10 -18 11 -18 18 0 4 11 2 21
-7 27 -11 7 -12 12 -1 29 7 11 17 55 23 98 6 42 16 86 24 98 7 11 15 31 17 45
2 17 10 4 27 -49 18 -56 28 -72 42 -72 15 0 19 7 19 34 0 23 8 41 25 57 46 44
35 53 -78 65 -37 3 -70 10 -73 15 -8 14 -48 11 -70 -5z"/>
<path d="M3018 546 c-3 -14 -1 -26 4 -26 14 0 22 30 11 41 -7 7 -12 2 -15 -15z"/>
<path d="M1453 550 c-25 -10 -28 -22 -13 -51 14 -25 27 -24 36 4 3 12 13 30
22 40 14 15 13 17 -4 16 -10 0 -29 -4 -41 -9z"/>
<path d="M1550 548 c17 -14 15 -58 -3 -73 -11 -9 -37 -72 -37 -89 0 -4 5 -4
12 0 7 4 23 9 36 10 19 2 23 -1 19 -17 -3 -10 0 -19 6 -19 26 0 -8 -15 -38
-17 -41 -2 -71 29 -81 83 l-6 35 -14 -27 c-8 -14 -11 -31 -8 -36 4 -6 -2 -8
-15 -3 -13 4 -21 2 -21 -5 0 -7 9 -14 20 -17 11 -3 20 -9 20 -14 0 -5 9 -9 20
-9 11 0 20 -5 20 -11 0 -5 4 -8 9 -4 5 3 22 -7 36 -21 l27 -27 23 27 c26 30
40 33 49 10 4 -9 9 -14 12 -11 10 9 -19 76 -30 70 -5 -4 0 9 12 29 12 19 22
42 22 49 0 8 9 22 20 32 27 23 25 45 -5 59 -18 8 -32 8 -47 1 -14 -6 -33 -7
-48 -2 -21 8 -22 7 -10 -3z m67 -20 c13 -22 12 -38 -3 -38 -8 0 -14 4 -14 9 0
5 -3 16 -6 25 -7 19 11 22 23 4z m-27 -22 c0 -3 -4 -8 -10 -11 -5 -3 -10 -1
-10 4 0 6 5 11 10 11 6 0 10 -2 10 -4z"/>
<path d="M2820 551 c0 -5 5 -13 10 -16 6 -3 10 -2 10 4 0 5 -4 13 -10 16 -5 3
-10 2 -10 -4z"/>
<path d="M2970 513 c-14 -7 -33 -13 -43 -13 -10 0 -15 -4 -12 -10 3 -5 -1 -10
-9 -10 -8 0 -17 -4 -20 -8 -11 -17 63 1 90 23 34 27 30 38 -6 18z"/>
<path d="M1180 486 c0 -21 6 -36 15 -40 20 -7 19 -44 -4 -113 -19 -55 -35
-273 -21 -273 4 0 10 4 15 9 6 6 28 11 50 13 33 3 40 0 37 -14 -4 -23 14 -23
36 -1 17 16 19 21 21 55 0 10 12 20 26 24 22 5 31 21 26 48 -1 5 1 22 5 39 4
22 8 26 15 16 6 -10 9 -8 9 9 0 13 -4 21 -8 18 -4 -2 -7 12 -6 32 0 20 6 38
12 40 12 4 7 22 -7 22 -14 0 -32 -71 -26 -103 7 -30 6 -31 -9 -12 -15 20 -15
20 -16 -5 -1 -41 -11 -70 -26 -70 -9 0 -14 12 -14 34 0 18 -7 52 -15 75 -8 23
-12 48 -9 56 4 8 1 15 -6 15 -18 0 -5 72 15 87 9 6 18 25 20 42 4 29 2 30 -16
20 -11 -5 -23 -17 -26 -25 -9 -23 -48 -17 -63 11 -19 35 -30 31 -30 -9z m40
-306 c0 -4 -7 -10 -15 -14 -11 -4 -15 2 -15 21 0 21 2 24 15 13 8 -7 15 -16
15 -20z m-10 -72 c0 -5 -4 -8 -10 -8 -5 0 -10 10 -10 23 0 18 2 19 10 7 5 -8
10 -18 10 -22z"/>
<path d="M1812 485 c1 -14 6 -25 11 -25 4 0 5 -5 1 -12 -4 -6 -3 -8 3 -5 16
10 14 67 -3 67 -9 0 -13 -9 -12 -25z"/>
<path d="M3020 485 c0 -8 2 -15 4 -15 2 0 6 7 10 15 3 8 1 15 -4 15 -6 0 -10
-7 -10 -15z"/>
<path d="M1495 480 c4 -6 11 -8 16 -5 14 9 11 15 -7 15 -8 0 -12 -5 -9 -10z"/>
<path d="M2831 474 c0 -11 3 -14 6 -6 3 7 2 16 -1 19 -3 4 -6 -2 -5 -13z"/>
<path d="M960 445 c-7 -9 -10 -18 -6 -22 3 -3 6 -1 6 5 0 7 7 12 15 12 8 0 15
5 15 10 0 15 -16 12 -30 -5z"/>
<path d="M1015 449 c4 -6 -3 -13 -15 -16 -14 -4 -19 -11 -15 -21 8 -21 16
-131 9 -114 -3 6 -12 12 -20 12 -8 0 -14 7 -12 16 4 21 -24 39 -47 30 -14 -5
-15 -9 -5 -21 9 -10 9 -15 1 -15 -14 0 -15 -37 0 -45 6 -4 8 -12 6 -19 -3 -6
-1 -38 4 -70 8 -46 7 -63 -5 -81 -8 -13 -12 -25 -9 -29 11 -11 33 -6 33 8 0
10 9 12 38 7 20 -4 47 -6 59 -5 14 1 23 -6 27 -18 4 -17 7 -18 19 -7 12 11 12
16 2 21 -7 4 -10 19 -8 35 4 22 2 25 -6 13 -9 -12 -11 -11 -12 10 -1 14 0 30
1 35 1 6 3 15 3 22 0 7 4 10 8 7 5 -2 6 -12 3 -22 -3 -9 2 -6 10 8 8 14 15 40
16 58 0 17 5 32 10 32 6 0 10 4 10 10 0 5 -7 7 -15 4 -16 -7 -32 37 -19 57 5
8 2 10 -8 6 -12 -4 -14 -1 -10 15 4 16 1 19 -19 16 -15 -2 -23 -9 -21 -18 1
-10 -3 -8 -13 5 -15 18 -14 20 11 29 17 5 30 4 37 -3 31 -31 36 -1 5 34 -21
24 -66 36 -53 14z m60 -159 c3 -5 2 -10 -4 -10 -5 0 -13 5 -16 10 -3 6 -2 10
4 10 5 0 13 -4 16 -10z m-76 -81 c-10 -6 -8 -9 7 -9 12 0 24 7 28 15 3 8 11
15 18 14 10 0 10 -2 1 -6 -7 -2 -13 -11 -13 -19 0 -8 -4 -14 -10 -14 -6 0 -6
-9 0 -25 11 -29 0 -38 -39 -32 -18 3 -25 11 -27 35 -2 18 1 32 7 32 5 0 8 4 5
9 -7 11 15 21 28 13 4 -2 2 -8 -5 -13z"/>
<path d="M704 436 c-3 -8 -1 -23 5 -33 9 -16 10 -16 11 6 0 21 2 22 17 10 15
-13 15 -12 4 9 -13 25 -29 29 -37 8z"/>
<path d="M827 433 c-4 -3 -7 -13 -7 -22 1 -13 3 -12 12 4 11 19 11 19 19 0 7
-19 8 -18 8 3 1 21 -18 30 -32 15z"/>
<path d="M3037 354 c-4 -42 -7 -90 -7 -106 l0 -29 29 17 c22 13 28 22 22 33
-5 9 -12 43 -16 77 -10 91 -21 94 -28 8z"/>
<path d="M1916 412 c-4 -7 -12 -10 -17 -7 -5 3 -15 0 -23 -7 -11 -11 -11 -19
-1 -48 10 -30 10 -39 -1 -54 -7 -11 -11 -23 -8 -28 3 -5 -1 -19 -9 -31 -8 -12
-18 -37 -21 -55 -8 -36 -25 -42 -33 -12 -4 16 -9 18 -25 9 -10 -6 -24 -20 -29
-33 -6 -12 -20 -26 -32 -31 -11 -6 -23 -16 -25 -24 -3 -8 0 -11 7 -7 6 4 11 3
11 -3 0 -6 7 -8 15 -5 8 4 15 1 15 -5 0 -6 11 -11 25 -11 14 0 25 6 25 13 0 7
9 18 20 25 11 7 20 19 20 27 0 13 3 13 20 3 26 -16 33 -37 19 -54 -10 -12 -1
-14 49 -14 39 0 62 4 65 13 4 9 8 9 15 -2 9 -12 13 -12 26 -2 13 11 12 17 -9
52 -14 21 -25 47 -25 57 0 9 -9 25 -20 35 -17 15 -19 25 -14 72 5 37 3 59 -5
69 -7 8 -16 27 -20 42 -5 19 -10 24 -15 16z"/>
<path d="M2651 404 c0 -11 3 -14 6 -6 3 7 2 16 -1 19 -3 4 -6 -2 -5 -13z"/>
<path d="M507 377 c-28 -22 -29 -24 -29 -130 0 -59 -4 -107 -9 -107 -12 0 -12
-37 1 -45 5 -3 7 -12 3 -20 -3 -8 -1 -15 3 -16 5 0 38 -1 74 -2 l65 -2 3 57
c1 34 12 77 27 110 14 29 25 61 25 71 0 27 -27 74 -52 91 -31 22 -45 20 -23
-4 20 -22 14 -26 -16 -9 -11 5 -17 14 -14 20 12 18 -30 9 -58 -14z m68 -48
c-7 -20 -8 -21 -17 -4 -8 12 -7 20 3 26 18 11 22 5 14 -22z m-25 -13 c0 -3 -4
-8 -10 -11 -5 -3 -10 -1 -10 4 0 6 5 11 10 11 6 0 10 -2 10 -4z"/>
<path d="M2598 363 c-9 -2 -19 -16 -22 -31 -7 -34 -1 -100 9 -110 4 -4 5 12 2
35 -4 33 -1 45 14 59 10 9 16 21 13 25 -3 5 0 9 5 9 6 0 11 5 11 10 0 10 -4
11 -32 3z"/>
<path d="M389 351 c16 -10 3 -20 -21 -16 -21 4 -24 -11 -5 -18 9 -4 9 -6 0 -6
-6 -1 -15 4 -18 9 -4 7 -13 7 -26 0 -15 -9 -19 -7 -19 7 0 13 -3 14 -12 5 -10
-9 -8 -16 5 -29 10 -10 17 -13 17 -5 0 6 6 9 14 6 8 -3 12 -12 9 -20 -3 -7 2
-17 11 -20 20 -8 21 -24 1 -24 -8 0 -15 5 -15 11 0 5 -4 8 -9 5 -5 -4 -12 0
-14 6 -3 8 -6 5 -6 -6 -1 -27 29 -45 63 -39 21 4 27 3 22 -5 -4 -7 -3 -12 2
-12 4 0 6 27 4 60 -3 40 -1 60 7 60 6 0 11 9 11 20 0 12 -7 20 -17 20 -14 0
-15 -2 -4 -9z"/>
<path d="M739 356 c-1 -1 -3 -18 -4 -38 -5 -45 16 -61 61 -49 26 7 29 12 29
46 l0 39 -42 1 c-24 1 -43 1 -44 1z"/>
<path d="M2631 343 c-5 -9 -7 -41 -4 -70 5 -42 2 -57 -11 -72 -11 -12 -16 -31
-14 -53 3 -32 4 -33 46 -30 23 2 63 9 87 17 25 7 42 9 39 4 -3 -5 2 -9 11 -9
9 0 13 -5 10 -10 -3 -5 -15 -10 -25 -10 -19 0 -36 -17 -27 -26 12 -12 86 17
92 36 9 29 -4 80 -20 80 -8 0 -12 -6 -9 -14 5 -14 -36 -23 -138 -29 -22 -1
-38 -7 -38 -14 0 -6 -4 -14 -8 -17 -7 -4 -8 21 -3 64 1 13 2 13 11 0 5 -8 10
-10 10 -5 3 44 6 175 4 175 -2 0 -7 -8 -13 -17z"/>
<path d="M1455 331 c-3 -5 -1 -12 5 -16 5 -3 10 1 10 9 0 18 -6 21 -15 7z"/>
<path d="M157 283 c-4 -3 -7 -11 -7 -17 0 -6 5 -5 12 2 6 6 9 14 7 17 -3 3 -9
2 -12 -2z"/>
<path d="M1434 258 c-4 -6 -3 -8 4 -4 5 3 13 0 15 -6 3 -8 6 -6 6 5 1 19 -14
23 -25 5z"/>
<path d="M165 250 c-3 -5 1 -10 10 -10 9 0 13 5 10 10 -3 6 -8 10 -10 10 -2 0
-7 -4 -10 -10z"/>
<path d="M1622 230 c0 -19 2 -27 5 -17 2 9 2 25 0 35 -3 9 -5 1 -5 -18z"/>
<path d="M1415 195 c7 -68 13 -75 72 -75 41 0 66 14 41 23 -19 6 -3 19 26 21
19 1 26 6 26 22 0 12 -7 25 -16 28 -12 5 -15 2 -10 -11 5 -15 4 -15 -9 1 -15
19 -15 19 -40 -4 -21 -20 -27 -21 -41 -9 -13 11 -18 11 -21 2 -7 -20 -21 -15
-26 10 -2 12 -3 9 -2 -8z m97 -21 c-25 -11 -37 -12 -50 -3 -16 10 -16 10 0 5
10 -3 28 -1 40 4 37 15 46 10 10 -6z"/>
<path d="M1450 216 c0 -2 7 -6 15 -10 8 -3 15 -1 15 4 0 6 -7 10 -15 10 -8 0
-15 -2 -15 -4z"/>
<path d="M1099 188 c-6 -64 -6 -78 -3 -78 2 0 10 15 17 33 14 32 12 57 -4 57
-5 0 -9 -6 -10 -12z"/>
<path d="M2913 181 c-25 -21 -31 -44 -10 -36 9 4 42 56 34 55 -1 -1 -12 -9
-24 -19z"/>
<path d="M3060 145 c-20 -24 -6 -28 15 -5 10 11 13 20 8 20 -6 0 -16 -7 -23
-15z"/>
<path d="M1550 131 c0 -5 7 -12 16 -15 21 -8 21 -8 21 9 0 8 -9 15 -19 15 -10
0 -18 -4 -18 -9z"/>
<path d="M2940 128 c0 -6 -10 -8 -25 -4 -14 4 -25 2 -25 -4 0 -5 24 -10 55
-10 30 0 55 2 55 4 0 2 -13 9 -30 15 -21 7 -30 7 -30 -1z"/>
<path d="M730 110 c0 -19 32 -38 38 -21 2 5 9 8 15 6 13 -5 45 11 37 18 -3 2
-24 7 -47 10 -37 4 -43 2 -43 -13z"/>
<path d="M316 106 c4 -10 2 -21 -4 -25 -6 -3 7 -6 29 -6 26 0 39 4 39 13 0 9
-6 12 -16 8 -10 -4 -25 1 -36 11 -18 16 -19 16 -12 -1z"/>
<path d="M130 102 c0 -10 27 -28 38 -24 22 7 13 27 -13 27 -14 0 -25 -1 -25
-3z"/>
<path d="M265 100 c-3 -5 -2 -10 4 -10 5 0 13 5 16 10 3 6 2 10 -4 10 -5 0
-13 -4 -16 -10z"/>
<path d="M673 95 c-8 -22 6 -33 17 -15 13 20 12 30 0 30 -6 0 -13 -7 -17 -15z"/>
<path d="M3200 100 c20 -13 33 -13 25 0 -3 6 -14 10 -23 10 -15 0 -15 -2 -2
-10z"/>
<path d="M3388 93 c6 -2 18 -2 25 0 6 3 1 5 -13 5 -14 0 -19 -2 -12 -5z"/>
<path d="M3040 66 c0 -9 5 -16 10 -16 6 0 10 4 10 9 0 6 -4 13 -10 16 -5 3
-10 -1 -10 -9z"/>
<path d="M1371 54 c0 -11 3 -14 6 -6 3 7 2 16 -1 19 -3 4 -6 -2 -5 -13z"/>
<path d="M2591 54 c0 -11 3 -14 6 -6 3 7 2 16 -1 19 -3 4 -6 -2 -5 -13z"/>
<path d="M2611 54 c0 -11 3 -14 6 -6 3 7 2 16 -1 19 -3 4 -6 -2 -5 -13z"/>
<path d="M3070 59 c0 -5 5 -7 10 -4 6 3 10 8 10 11 0 2 -4 4 -10 4 -5 0 -10
-5 -10 -11z"/>
<path d="M2828 43 c7 -3 16 -2 19 1 4 3 -2 6 -13 5 -11 0 -14 -3 -6 -6z"/>
</g>
</svg>
