<?xml version="1.0" standalone="no"?>
<!DOCTYPE svg PUBLIC "-//W3C//DTD SVG 20010904//EN"
 "http://www.w3.org/TR/2001/REC-SVG-20010904/DTD/svg10.dtd">
<svg version="1.0" xmlns="http://www.w3.org/2000/svg"
 width="225.000000pt" height="225.000000pt" viewBox="0 0 225.000000 225.000000"
 preserveAspectRatio="xMidYMid meet">

<g transform="translate(0.000000,225.000000) scale(0.100000,-0.100000)"
fill="#000000" stroke="none">
<path d="M970 1673 c-13 -9 -37 -18 -51 -19 -37 -3 -46 -9 -68 -52 -11 -20
-33 -54 -50 -76 -17 -21 -31 -45 -31 -52 0 -7 13 -28 29 -46 16 -18 32 -48 36
-66 8 -38 29 -50 56 -34 16 10 20 7 35 -23 10 -21 32 -44 57 -57 29 -16 50
-39 68 -73 46 -87 109 -82 149 10 14 32 28 48 53 58 35 15 77 60 77 83 0 17 5
17 29 2 27 -16 47 -4 54 32 4 17 18 46 32 64 31 40 32 77 4 102 -12 10 -32 41
-45 67 -24 47 -56 70 -82 59 -7 -2 -21 3 -32 13 -28 26 -89 29 -130 8 -33 -17
-37 -17 -70 -1 -44 23 -89 23 -120 1z m130 -28 c18 -16 21 -16 53 4 43 26 83
27 125 1 19 -12 42 -18 52 -15 18 6 60 -35 60 -60 0 -6 16 -30 36 -53 35 -41
35 -43 20 -67 -22 -33 -36 -32 -36 4 0 17 -5 33 -11 37 -8 5 -9 -11 -4 -54 8
-67 1 -102 -20 -102 -27 0 -37 38 -29 120 7 80 -6 140 -28 140 -6 0 -7 -8 -3
-17 19 -47 22 -74 14 -114 -4 -24 -8 -63 -9 -87 -1 -106 -89 -161 -154 -95
l-27 26 26 27 c44 46 28 79 -40 78 -65 -2 -86 -36 -45 -73 11 -10 20 -24 20
-31 0 -21 -51 -54 -82 -54 -43 0 -88 48 -88 95 0 20 -5 67 -11 104 -10 58 -9
74 4 100 8 17 12 33 8 36 -8 4 -23 -21 -35 -59 -4 -10 -2 -46 4 -79 13 -68 0
-120 -29 -115 -13 3 -16 17 -15 76 0 75 -9 95 -20 40 -6 -30 -7 -31 -26 -13
-27 24 -25 38 9 77 15 18 36 49 46 68 21 42 34 51 58 44 9 -3 29 4 45 16 21
17 36 21 70 17 24 -2 51 -12 62 -22z m16 -250 c6 -14 8 -13 20 2 12 17 14 17
30 1 18 -17 12 -38 -12 -38 -8 0 -14 -5 -14 -11 0 -5 -5 -7 -10 -4 -6 4 -7 11
-4 17 4 6 -1 6 -14 -1 -24 -13 -48 9 -38 34 7 19 35 19 42 0z m14 -162 c0 22
18 31 35 17 32 -27 1 -120 -40 -120 -41 0 -73 74 -47 111 l15 22 19 -23 c13
-16 18 -18 18 -7z"/>
<path d="M970 1481 c-10 -20 -9 -20 15 -9 21 9 31 9 47 -1 17 -11 19 -10 16 6
-5 27 -63 30 -78 4z"/>
<path d="M1200 1480 c-12 -23 -8 -25 20 -8 16 10 24 10 40 0 22 -13 27 -3 8
16 -19 19 -56 14 -68 -8z"/>
<path d="M1015 1290 c-3 -5 -1 -10 4 -10 6 0 11 5 11 10 0 6 -2 10 -4 10 -3 0
-8 -4 -11 -10z"/>
<path d="M1086 1393 c-11 -11 -6 -23 9 -23 8 0 15 4 15 9 0 13 -16 22 -24 14z"/>
<path d="M1140 1380 c0 -5 4 -10 9 -10 6 0 13 5 16 10 3 6 -1 10 -9 10 -9 0
-16 -4 -16 -10z"/>
<path d="M813 1067 c-42 -45 -80 -156 -67 -191 6 -17 44 -22 44 -7 0 7 51 31
66 31 1 0 4 -12 6 -27 2 -17 10 -29 21 -31 38 -8 11 194 -33 233 -15 13 -19
13 -37 -8z m41 -58 c10 -51 7 -76 -10 -83 -31 -12 -42 -7 -37 17 24 106 35
122 47 66z"/>
<path d="M1082 1078 c-7 -7 -12 -40 -12 -84 0 -49 -4 -74 -12 -76 -9 -3 -8 -9
5 -22 9 -10 17 -23 17 -30 0 -18 33 -46 53 -46 17 0 37 29 37 52 -1 9 -5 7
-14 -4 -18 -24 -23 -23 -28 6 -4 18 0 26 16 31 20 6 20 6 2 14 -17 7 -20 18
-20 87 -1 62 -4 79 -16 82 -9 1 -21 -3 -28 -10z"/>
<path d="M1202 1078 c-7 -7 -12 -20 -12 -31 0 -13 6 -18 23 -15 16 2 22 10 22
27 0 28 -15 37 -33 19z"/>
<path d="M1348 1016 c-8 -93 -21 -104 -33 -26 -8 55 -13 65 -30 65 -18 0 -20
-6 -19 -60 1 -64 25 -125 49 -125 8 0 22 11 30 24 19 29 33 170 18 179 -6 4
-12 -18 -15 -57z"/>
<path d="M973 1029 c-28 -10 -43 -39 -43 -84 0 -51 15 -75 49 -75 28 0 61 26
61 48 0 9 -5 9 -20 0 -25 -15 -40 1 -40 43 0 26 31 64 43 52 4 -3 7 -2 7 4 0
15 -32 22 -57 12z"/>
<path d="M1416 1021 c-26 -29 -32 -95 -12 -126 9 -14 24 -25 34 -25 27 0 62
29 62 52 0 21 0 21 -21 2 -20 -18 -21 -18 -35 1 -19 25 -18 32 6 40 21 7 37
46 25 64 -10 17 -40 13 -59 -8z m35 -24 c-8 -8 -11 -7 -11 4 0 20 13 34 18 19
3 -7 -1 -17 -7 -23z"/>
<path d="M1190 984 c-12 -32 -13 -104 -1 -123 8 -12 12 -12 25 -2 23 19 23
151 1 151 -9 0 -20 -12 -25 -26z"/>
</g>
</svg>
