<?xml version="1.0" standalone="no"?>
<!DOCTYPE svg PUBLIC "-//W3C//DTD SVG 20010904//EN"
 "http://www.w3.org/TR/2001/REC-SVG-20010904/DTD/svg10.dtd">
<svg version="1.0" xmlns="http://www.w3.org/2000/svg"
 width="225.000000pt" height="225.000000pt" viewBox="0 0 225.000000 225.000000"
 preserveAspectRatio="xMidYMid meet">

<g transform="translate(0.000000,225.000000) scale(0.100000,-0.100000)"
fill="#000000" stroke="none">
<path d="M815 2240 c-257 -40 -488 -190 -632 -411 -168 -258 -188 -594 -52
-878 122 -257 352 -437 634 -498 105 -23 280 -20 389 6 88 21 230 81 285 120
l29 21 277 -290 c201 -209 287 -292 311 -300 88 -29 169 47 149 139 -4 19 -95
121 -284 317 l-278 289 44 64 c113 164 163 323 163 515 0 157 -28 282 -93 411
-122 245 -331 410 -604 480 -77 19 -258 27 -338 15z m290 -245 c33 -8 98 -34
145 -57 104 -50 227 -167 283 -268 61 -112 82 -197 81 -335 0 -104 -4 -130
-28 -200 -94 -272 -324 -447 -606 -462 -321 -17 -613 200 -685 512 -22 92 -22
233 -1 315 61 240 258 437 492 494 80 19 245 20 319 1z"/>
</g>
</svg>
