<?xml version="1.0" standalone="no"?>
<!DOCTYPE svg PUBLIC "-//W3C//DTD SVG 20010904//EN"
 "http://www.w3.org/TR/2001/REC-SVG-20010904/DTD/svg10.dtd">
<svg version="1.0" xmlns="http://www.w3.org/2000/svg"
 width="225.000000pt" height="225.000000pt" viewBox="0 0 225.000000 225.000000"
 preserveAspectRatio="xMidYMid meet">

<g transform="translate(0.000000,225.000000) scale(0.100000,-0.100000)"
fill="#000000" stroke="none">
<path d="M281 2094 c-88 -44 -131 -137 -109 -237 19 -89 116 -167 208 -167 76
0 161 55 195 126 20 43 21 130 2 175 -48 113 -182 160 -296 103z"/>
<path d="M235 1631 c-43 -25 -240 -409 -232 -449 3 -15 65 -155 137 -312 l131
-285 -29 -40 c-16 -22 -68 -93 -115 -158 -75 -102 -87 -124 -87 -159 0 -55 42
-98 97 -98 22 0 47 6 56 13 27 20 287 380 294 407 3 14 0 43 -9 67 -9 24 -14
43 -11 43 2 0 21 -12 41 -27 20 -15 38 -28 40 -29 2 -1 -4 -66 -12 -144 -23
-202 -22 -232 9 -263 45 -44 125 -37 159 15 10 15 22 98 37 244 21 206 22 224
6 247 -8 13 -59 55 -111 93 l-96 68 0 231 1 230 48 -55 49 -55 166 -3 166 -3
31 31 c27 27 31 36 26 67 -12 69 -30 78 -177 81 l-130 4 -107 115 c-60 63
-120 121 -135 129 -42 22 -205 19 -243 -5z m93 -202 c2 -9 -24 -66 -58 -126
l-61 -110 56 -113 c30 -62 55 -122 55 -132 0 -25 -26 -75 -42 -81 -34 -11 -50
24 -27 61 8 13 -1 41 -45 135 -31 65 -56 125 -56 134 0 16 104 206 129 236 17
21 44 19 49 -4z"/>
<path d="M1475 861 l-57 -159 -37 -5 c-20 -3 -127 -9 -237 -13 -197 -7 -203
-6 -249 16 -28 13 -58 39 -74 61 -29 43 -42 51 -61 39 -35 -21 45 -126 116
-152 24 -9 34 -17 30 -28 -29 -86 -30 -101 -14 -163 l16 -62 -31 -43 -31 -43
13 -76 c17 -101 18 -103 56 -103 39 0 47 14 34 66 -4 22 -9 42 -9 46 0 4 45
41 99 83 55 41 104 82 108 90 7 12 28 11 153 -11 80 -13 147 -28 151 -32 3 -4
14 -56 23 -117 9 -60 20 -113 25 -118 4 -4 30 -7 57 -5 l49 3 1 45 c0 41 4 47
52 83 l50 38 69 -20 c37 -11 86 -23 108 -26 83 -13 84 -13 90 -53 12 -67 15
-72 45 -72 34 0 40 14 40 85 0 38 7 65 22 91 17 29 23 58 26 125 l4 87 32 6
c82 15 139 133 73 150 -13 3 -38 24 -56 46 -20 25 -40 40 -54 40 -13 0 -40 9
-62 20 -22 11 -54 20 -73 20 -81 0 -148 -68 -126 -128 7 -17 7 -37 1 -55 -6
-19 -4 -36 7 -58 9 -18 16 -34 16 -36 0 -1 -56 -3 -125 -3 -139 0 -134 -4
-114 73 9 39 15 44 60 60 55 20 113 66 134 108 19 35 6 51 -59 69 -29 8 -48
19 -51 31 -4 11 -17 27 -31 35 -16 11 -24 26 -24 44 0 34 -25 59 -42 42 -17
-17 -23 -15 -36 13 -7 14 -20 25 -31 25 -15 0 -29 -29 -76 -159z"/>
</g>
</svg>
